<svg xmlns="http://www.w3.org/2000/svg" shape-rendering="geometricPrecision" text-rendering="geometricPrecision" image-rendering="optimizeQuality" fill-rule="evenodd" clip-rule="evenodd" viewBox="0 0 512 503.363"><path fill="#D9762C" d="M83.705.03C73.417-.769 6.633 15.058 2.013 27.612.227 32.456-3.388 39.823 7.741 47.277c11.67 1.658 21.468 1.769 29.162.267-4.525 6.552-13.928 10.785-27.728 12.941-.661 9.85 6.896 14.298 25.505 11.455 25.581-6.371 47.882-1.649 55.311 6.286 19.235 20.524 14.538 42.757 12.194 69.42-.722 8.227-1.28 16.505-1.598 24.801-1.313 33.628-.24 127.702 9.549 160.025 13.44 44.328 25.419 41.202 25.419 96.101v28.622l-5.006 19.107a12.225 12.225 0 01-.971 3.666c-1.271 2.843-4.345 5.437-6.543 7.66l-3.556 3.607c-2.747 4.852-1.665 11.275 3.547 12.108h36.754c1.718-.077 2.009-.815 2.508-2.816l11.069-48.759c2.49 2.799 3.314 11.232 4.972 16.848l3.375 11.447c.437 1.898.644 3.632.626 5.195-.051 4.14-2.327 6.415-3.151 10.554-.756 3.83-.258 7.635 3.993 7.531h33.508c1.769-.051 2.55-.987 2.293-2.894l-5.745-51.352c1.743-1.606 4.002-5.582 4.637-8.055 15.329 4.156 31.704 6.861 48.458 6.535v31.335c-2.456 6.905-16.668 20.413 0 24.397h27.463c2.756.043 3.898-1.52 3.83-4.311l-.241-15.543 8.373-24.388c.533-2.233 2.894-1.649 3.34 0l11.482 18.171c.61 2.379.506 4.259-.232 5.977l-8.373 14.589c-.627 3.977.782 5.917 4.543 5.505h36.342c2.061-.086 3.581-.79 4.353-2.361 1.735-3.53-2.31-19.485-3.572-23.616-3.46-11.352-10.485-17.544-11.223-25.908-.438-4.972.824-10.039 4.946-13.164 52.769 16.728 121.64 28.098 159.218 23.357 7.231-1.107 7.832-9.763-1.837-10.768-35.415-6.217-68.296-14.29-95.071-26.81-57.75-27.016-58.386-75.801-118.781-102.945-46.56-20.936-67.436-19.665-102.009-24.337-12.718-1.717-22.07-9.12-30.374-23.383-5.083-8.716-8.329-77.862-10.055-89.944-3.761-26.346.704-61.271-2.654-91.086C139.505 36.569 115.856 2.546 83.705.03z"/><path fill="#C36A28" d="M213.228 449.098c1.743-1.607 4.002-5.583 4.636-8.055 15.329 4.154 31.705 6.861 48.459 6.535l-51.88-28.138-1.215 29.658z"/><path fill="#AA2416" d="M83.704.029c-2.598-.202-8.806.659-16.703 2.258l26.111 10.379-1.835 25.998L120.8 51.467l-7.981 17.034 16.719 22.926-9.13 22.572 14.194 27.702-11.695 24.825 14.314 28.327-9.967 30.922 19.575 20.596-13.41 28.47 16.085 4.863-4.462 19.391 17.518 1.372 9.171 19.562 27.466-7.393 14.513 17.977 12.753-9.334 27.208 22.796 25.339-11.284 12.339 27.794 21.313-5.687 5.82 35.001 27.842-1.771 24.168 22.461 32.968 10.345c-51.667-27.513-54.428-73.705-112.577-99.841-46.56-20.936-67.436-19.664-102.009-24.336-12.717-1.717-22.07-9.12-30.373-23.382-5.085-8.718-8.329-77.863-10.056-89.945-3.762-26.345.705-61.272-2.654-91.086C139.506 36.569 115.856 2.546 83.704.029z"/><ellipse fill="#fff" cx="64.402" cy="27.492" rx="4.932" ry="4.931"/></svg>