<svg xmlns="http://www.w3.org/2000/svg" shape-rendering="geometricPrecision" text-rendering="geometricPrecision" image-rendering="optimizeQuality" fill-rule="evenodd" clip-rule="evenodd" viewBox="0 0 512 488.134"><path fill="#FFAA39" fill-rule="nonzero" d="M267.754 7.907l63.958 156.311 168.458 12.525c7.011.494 12.291 6.579 11.798 13.589a12.688 12.688 0 01-4.829 9.108L378.561 308.322l40.151 164.121c1.647 6.818-2.543 13.686-9.36 15.333-3.552.857-7.117.13-9.951-1.727l-143.396-88.714-143.69 88.897c-5.965 3.682-13.792 1.833-17.474-4.132a12.66 12.66 0 01-1.536-9.655l40.142-164.123L4.501 199.144c-5.36-4.535-6.027-12.561-1.492-17.922a12.679 12.679 0 018.811-4.469l168.472-12.535L244.255 7.907c2.64-6.487 10.042-9.608 16.53-6.969a12.651 12.651 0 016.969 6.969z"/><path fill="#FFCB47" d="M256.004 12.688l66.958 163.641 176.313 13.108L364.35 303.691l42.015 171.738-150.361-93.025-150.36 93.025 42.014-171.738L12.716 189.437l176.327-13.111z"/><path fill="#FFD88A" d="M188.75 173.126L255.299 7.779v251.109L11.738 188.907z"/><path fill="#FFD88A" d="M254.042 383.37l-146.917 89.735 146.038-221.699L406.24 474.863z"/><path fill="#FFAA39" d="M265.938 148.38l28.98 70.821 76.336 5.674c5.257.371 9.219 4.934 8.848 10.191a9.521 9.521 0 01-3.624 6.832l-58.165 49.254 18.199 74.384c1.235 5.112-1.907 10.263-7.02 11.498a9.5 9.5 0 01-7.453-1.288l-64.912-40.158-65.119 40.288c-4.472 2.762-10.343 1.375-13.105-3.097a9.487 9.487 0 01-1.151-7.241l18.191-74.386-58.439-49.478c-4.019-3.4-4.52-9.421-1.12-13.44a9.507 9.507 0 016.608-3.35l76.346-5.685 28.977-70.819c1.977-4.865 7.531-7.205 12.395-5.228a9.484 9.484 0 015.228 5.228z"/><path fill="#FFE070" d="M257.128 151.963l31.228 76.319 82.228 6.113-62.926 53.285 19.594 80.094-70.124-43.385-70.124 43.385 19.594-80.094-62.933-53.285 82.234-6.115z"/></svg>