<?xml version="1.0" encoding="UTF-8" standalone="no"?>
<!-- Created with Inkscape (http://www.inkscape.org/) -->

<svg
   version="1.1"
   id="svg2"
   width="2829.3333"
   height="2829.3333"
   viewBox="0 0 2829.3333 2829.3333"
   sodipodi:docname="7b7be946-8479-4be9-a792-3e705bdad2c8.eps"
   xmlns:inkscape="http://www.inkscape.org/namespaces/inkscape"
   xmlns:sodipodi="http://sodipodi.sourceforge.net/DTD/sodipodi-0.dtd"
   xmlns="http://www.w3.org/2000/svg"
   xmlns:svg="http://www.w3.org/2000/svg">
  <defs
     id="defs6" />
  <sodipodi:namedview
     id="namedview4"
     pagecolor="#ffffff"
     bordercolor="#000000"
     borderopacity="0.25"
     inkscape:showpageshadow="2"
     inkscape:pageopacity="0.0"
     inkscape:pagecheckerboard="0"
     inkscape:deskcolor="#d1d1d1" />
  <g
     id="g8"
     inkscape:groupmode="layer"
     inkscape:label="ink_ext_XXXXXX"
     transform="matrix(1.3333333,0,0,-1.3333333,0,2829.3333)">
    <g
       id="g10"
       transform="scale(0.1)">
      <path
         d="M 10751.4,3491.8 V 2129.9 c 430.4,7.4 853.8,50 1266.9,125.8 v 1361.9 c -411.9,-75.2 -835.1,-118 -1266.9,-125.8"
         style="fill:#f0751e;fill-opacity:1;fill-rule:nonzero;stroke:none"
         id="path12" />
      <path
         d="M 2832.35,10610.9 C 2699.53,9091.6 3012.02,7633.8 3663.33,6368.2 v 1359.3 c -451.68,877.5 -741.46,1851.8 -830.98,2883.4"
         style="fill:#f0751e;fill-opacity:1;fill-rule:nonzero;stroke:none"
         id="path14" />
      <path
         d="M 6367.47,4740.9 V 3378.6 c 360.28,-233.4 741.93,-438 1141.8,-610.7 v 1361.4 c -398.95,172.7 -780.68,377.6 -1141.8,611.6"
         style="fill:#f0751e;fill-opacity:1;fill-rule:nonzero;stroke:none"
         id="path16" />
      <path
         d="M 16498.1,6175.9 V 4813.8 c 315.1,362.1 597.6,754.4 843,1172.5 v 1362.6 c -245,-417.3 -527.3,-809.9 -843,-1173"
         style="fill:#f0751e;fill-opacity:1;fill-rule:nonzero;stroke:none"
         id="path18" />
      <path
         d="M 17652.2,7934 V 6572.3 c 378.2,792.8 628.3,1663.2 720.4,2587.6 49.2,494.2 50.6,982 9,1459.4 -81.8,-954.5 -335.1,-1860 -729.4,-2685.3"
         style="fill:#f0751e;fill-opacity:1;fill-rule:nonzero;stroke:none"
         id="path20" />
      <path
         d="m 15237.6,5012.4 v -1361 c 346.2,255.4 670.9,539.1 970.9,848 v 1361.8 c -299.5,-308.7 -624.1,-592.8 -970.9,-848.8"
         style="fill:#f0751e;fill-opacity:1;fill-rule:nonzero;stroke:none"
         id="path22" />
      <path
         d="M 5107.03,5757.3 V 4395.9 c 300.06,-298.3 624.46,-573.1 970.89,-820.4 v 1362.2 c -345.7,246.7 -670.34,521 -970.89,819.6"
         style="fill:#f0751e;fill-opacity:1;fill-rule:nonzero;stroke:none"
         id="path24" />
      <path
         d="M 12326.1,3680.4 V 2318.7 c 409.1,92.3 806.9,217.2 1190.6,371.7 v 1360.7 c -382.8,-154 -780.5,-278.5 -1190.6,-370.7"
         style="fill:#f0751e;fill-opacity:1;fill-rule:nonzero;stroke:none"
         id="path26" />
      <path
         d="M 9297.21,3599.9 V 2239.5 c 176.61,-29.8 355.28,-54.4 536.19,-72.4 210.7,-21 420.3,-33.1 628.4,-37.2 v 1361.9 c -396.1,7.2 -784.98,44 -1164.59,108.1"
         style="fill:#f0751e;fill-opacity:1;fill-rule:nonzero;stroke:none"
         id="path28" />
      <path
         d="M 13806.3,4174.1 V 2813.4 c 398.7,179.7 780.6,392 1141.8,634.1 v 1360.8 c -360.5,-241.8 -742.2,-454.4 -1141.8,-634.2"
         style="fill:#f0751e;fill-opacity:1;fill-rule:nonzero;stroke:none"
         id="path30" />
      <path
         d="M 7798.82,4010.8 V 2649.7 c 382.23,-147.1 779.85,-265.3 1190.62,-351.8 v 1360.2 c -409.65,86.4 -807.41,204.9 -1190.62,352.7"
         style="fill:#f0751e;fill-opacity:1;fill-rule:nonzero;stroke:none"
         id="path32" />
      <path
         d="m 3974.47,7179.6 v -1360 c 247.27,-398 529.29,-773.2 843.01,-1120.5 v 1361.5 c -313.14,346.1 -595.36,720.7 -843.01,1119"
         style="fill:#f0751e;fill-opacity:1;fill-rule:nonzero;stroke:none"
         id="path34" />
      <path
         d="M 4817.48,6060.6 V 4699.1 c 93.68,-103.6 190.4,-204.6 289.55,-303.2 v 1361.4 c -99.17,98.5 -195.75,199.6 -289.55,303.3"
         style="fill:#c44420;fill-opacity:1;fill-rule:nonzero;stroke:none"
         id="path36" />
      <path
         d="M 3663.33,7727.5 V 6368.2 c 96.36,-187.3 200.3,-370.2 311.14,-548.6 v 1360 c -110.71,178 -214.75,360.7 -311.14,547.9"
         style="fill:#c44420;fill-opacity:1;fill-rule:nonzero;stroke:none"
         id="path38" />
      <path
         d="M 6077.92,4937.7 V 3575.5 c 94.89,-67.7 191.46,-133.3 289.55,-196.9 v 1362.3 c -98.01,63.6 -194.64,129.1 -289.55,196.8"
         style="fill:#c44420;fill-opacity:1;fill-rule:nonzero;stroke:none"
         id="path40" />
      <path
         d="m 10606.6,3489.9 c -48.4,0 -96.6,1 -144.8,1.9 V 2129.9 c 96.9,-1.9 193.4,-1.7 289.6,0 v 1361.9 c -48.2,-0.9 -96.4,-1.9 -144.8,-1.9"
         style="fill:#c44420;fill-opacity:1;fill-rule:nonzero;stroke:none"
         id="path42" />
      <path
         d="M 7509.27,4129.3 V 2767.9 c 95.48,-41.3 192.02,-80.6 289.55,-118.2 v 1361.1 c -97.48,37.6 -194,77.1 -289.55,118.5"
         style="fill:#c44420;fill-opacity:1;fill-rule:nonzero;stroke:none"
         id="path44" />
      <path
         d="M 8989.44,3658.1 V 2297.9 c 101.8,-21.4 204.4,-40.9 307.77,-58.4 v 1360.4 c -103.28,17.4 -205.91,36.8 -307.77,58.2"
         style="fill:#c44420;fill-opacity:1;fill-rule:nonzero;stroke:none"
         id="path46" />
      <path
         d="M 16208.5,5861.2 V 4499.4 c 99.2,102.1 195.9,206.8 289.6,314.4 v 1362.1 c -93.6,-107.6 -190.3,-212.4 -289.6,-314.7"
         style="fill:#c44420;fill-opacity:1;fill-rule:nonzero;stroke:none"
         id="path48" />
      <path
         d="M 17341.1,7348.9 V 5986.3 c 111.6,190.1 215.5,385.6 311.1,586 V 7934 c -95.5,-199.9 -199.5,-395 -311.1,-585.1"
         style="fill:#c44420;fill-opacity:1;fill-rule:nonzero;stroke:none"
         id="path50" />
      <path
         d="M 14948.1,4808.3 V 3447.5 c 98.1,65.7 194.6,133.9 289.5,203.9 v 1361 c -94.9,-70.1 -191.4,-138.3 -289.5,-204.1"
         style="fill:#c44420;fill-opacity:1;fill-rule:nonzero;stroke:none"
         id="path52" />
      <path
         d="M 13516.7,4051.1 V 2690.4 c 97.4,39.2 194.1,80 289.6,123 v 1360.7 c -95.5,-43 -192.1,-83.8 -289.6,-123"
         style="fill:#c44420;fill-opacity:1;fill-rule:nonzero;stroke:none"
         id="path54" />
      <path
         d="M 12018.3,3617.6 V 2255.7 c 103.3,19 205.9,40 307.8,63 v 1361.7 c -101.8,-22.9 -204.4,-43.9 -307.8,-62.8"
         style="fill:#c44420;fill-opacity:1;fill-rule:nonzero;stroke:none"
         id="path56" />
      <path
         d="m 3974.47,7179.6 c 247.65,-398.3 529.87,-772.9 843.01,-1119 93.8,-103.7 190.38,-204.8 289.55,-303.3 300.55,-298.6 625.19,-572.9 970.89,-819.6 94.91,-67.7 191.54,-133.2 289.55,-196.8 361.12,-234 742.85,-438.9 1141.8,-611.6 95.55,-41.4 192.07,-80.9 289.55,-118.5 383.21,-147.8 780.97,-266.3 1190.62,-352.7 101.86,-21.4 204.49,-40.8 307.77,-58.2 379.61,-64.1 768.49,-100.9 1164.59,-108.1 48.2,-0.9 96.4,-1.9 144.8,-1.9 48.4,0 96.6,1 144.8,1.9 431.8,7.8 855,50.6 1266.9,125.8 103.4,18.9 206,39.9 307.8,62.8 410.1,92.2 807.8,216.7 1190.6,370.7 97.5,39.2 194.1,80 289.6,123 399.6,179.8 781.3,392.4 1141.8,634.2 98.1,65.8 194.6,134 289.5,204.1 346.8,256 671.4,540.1 970.9,848.8 99.3,102.3 196,207.1 289.6,314.7 315.7,363.1 598,755.7 843,1173 111.6,190.1 215.6,385.2 311.1,585.1 394.3,825.3 647.6,1730.8 729.4,2685.3 19.1,222.5 29.4,447.5 29.4,675 0,4310.3 -3494.2,7804.4 -7804.4,7804.4 -4310.23,0 -7804.37,-3494.1 -7804.37,-7804.4 0,-230.3 10.58,-458.1 30.12,-683.4 89.52,-1031.6 379.3,-2005.9 830.98,-2883.4 96.39,-187.2 200.43,-369.9 311.14,-547.9"
         style="fill:#f7982a;fill-opacity:1;fill-rule:nonzero;stroke:none"
         id="path58" />
      <path
         d="m 5650.99,11294.3 c 0,-3195.9 2436.38,-5822.8 5553.11,-6124.6 3118.1,300.5 5556.1,2927.7 5556.1,6124.6 0,3196.9 -2438,5824.1 -5556.1,6124.6 -3116.73,-301.8 -5553.11,-2928.6 -5553.11,-6124.6"
         style="fill:#f6841d;fill-opacity:1;fill-rule:nonzero;stroke:none"
         id="path60" />
      <path
         d="m 10606.6,5140.7 c 51.8,0 103.4,0.7 154.9,2 18.5,0.4 36.8,1.4 55.3,2 32.9,1.1 65.8,2.1 98.5,3.7 22.1,1.1 44.1,2.7 66.2,4 28.9,1.8 57.8,3.4 86.7,5.5 23.4,1.8 46.8,3.9 70.2,5.9 22.4,2 44.9,3.6 67.2,5.7 l -1.5,0.2 c -3116.73,301.8 -5553.11,2928.7 -5553.11,6124.6 0,3196 2436.38,5822.8 5553.11,6124.6 l 1.5,0.2 c -22.3,2.2 -44.8,3.8 -67.2,5.7 -23.4,2 -46.8,4.2 -70.2,5.9 -29,2.2 -58.2,3.8 -87.3,5.5 -21.8,1.4 -43.5,2.9 -65.4,4 -33,1.6 -66.2,2.7 -99.4,3.8 -18.2,0.6 -36.3,1.5 -54.6,1.9 -51.5,1.3 -103.1,2 -154.9,2 -3398.53,0 -6153.59,-2755 -6153.59,-6153.6 0,-3398.5 2755.06,-6153.6 6153.59,-6153.6"
         style="fill:#f3651e;fill-opacity:1;fill-rule:nonzero;stroke:none"
         id="path62" />
      <path
         d="M 14000.8,11615.2 12791.6,10474 c -110.6,-104.5 -162.8,-256.6 -139.5,-407 l 254.6,-1643.1 c 58.6,-378.6 -342.3,-660.1 -678.4,-476.3 l -1459.1,797.3 c -133.5,73 -294.3,75.6 -430.1,7 L 8855.09,8002 c -16.47,-8.3 -33.12,-14.7 -49.78,-20.9 51.59,-288 374.36,-475.2 662.88,-329.4 l 1484.01,749.9 c 135.8,68.6 296.6,66 430.1,-7 l 1459.1,-797.4 c 336.1,-183.7 737,97.8 678.4,476.4 l -254.6,1643.1 c -23.3,150.4 28.9,302.5 139.5,406.9 l 1209.2,1141.3 c 278.6,262.9 134.8,731.2 -243.4,792.4 l -249.1,40.3 c 53.3,-160 21.9,-347.9 -120.6,-482.4"
         style="fill:#f3651e;fill-opacity:1;fill-rule:nonzero;stroke:none"
         id="path64" />
      <path
         d="m 12116,12673.2 244.5,-39.5 -687,1450.3 c -107.4,226.8 -354.3,307.4 -561.3,241 l 660,-1393.4 c 65.1,-137.4 193.7,-234.1 343.8,-258.4"
         style="fill:#f3651e;fill-opacity:1;fill-rule:nonzero;stroke:none"
         id="path66" />
      <path
         d="m 7201.79,11724.9 1171.77,-1179.7 c 107.21,-107.9 154.44,-261.7 126.31,-411.2 L 8192.4,8500 c -67.43,-358.4 284.05,-641.3 612.91,-518.9 16.66,6.2 33.31,12.6 49.78,20.9 l 1484.01,749.9 c 135.8,68.6 296.6,66 430.1,-7 l 1459.1,-797.3 c 336.1,-183.8 737,97.7 678.4,476.3 l -254.6,1643.1 c -23.3,150.4 28.9,302.5 139.5,407 l 1209.2,1141.2 c 142.5,134.5 173.9,322.4 120.6,482.4 -51,152.8 -179.2,280.1 -364,310 l -1396.9,226.1 -244.5,39.5 c -150.1,24.3 -278.7,121 -343.8,258.4 l -660,1393.4 -51.8,109.3 c -163.9,346.3 -653.8,354.2 -828.8,13.4 l -759.83,-1478.9 c -69.52,-135.4 -201.17,-227.8 -352.06,-247.2 L 7470.63,12509 c -379.95,-48.9 -538.82,-512.3 -268.84,-784.1"
         style="fill:#fbbf3c;fill-opacity:1;fill-rule:nonzero;stroke:none"
         id="path68" />
      <path
         d="m 12901.7,14362.8 c 5.6,-6.1 11.2,-12.3 16.7,-18.4 273.4,-300 572,-589.6 939.5,-761.9 125.5,-58.8 260.3,-103.7 398.8,-105.4 138.5,-1.6 281.8,44.3 377.1,144.8 134.1,141.4 149.8,358.2 122.6,551.1 -47.8,339.9 -202.3,655.4 -378.5,949.9 -247.8,414.2 -548.5,805.2 -938,1090.2 -348.3,254.7 -1066.6,536 -1277.1,-31.4 -51.4,-138.3 -52.7,-290.6 -32.5,-436.8 73.2,-530.8 411.2,-984.2 771.4,-1382.1"
         style="fill:#ffffff;fill-opacity:1;fill-rule:nonzero;stroke:none"
         id="path70" />
      <path
         d="m 15175.5,11850.6 8.4,-10.9 c 137.7,-178.5 289.3,-352.2 482.3,-463.1 65.8,-37.9 137.2,-68.3 212.1,-74.7 74.9,-6.4 153.9,13.5 208.9,65.9 77.4,73.6 93.2,194.2 85.1,303.1 -14.2,191.7 -87,374.2 -172.3,545.7 -120,241.3 -269.2,471.8 -470.3,646.5 -179.7,156.1 -558.6,341.9 -691.9,33.2 -32.5,-75.2 -38.4,-160.3 -32.5,-242.7 21.5,-299.6 188.9,-566.4 370.2,-803"
         style="fill:#ffffff;fill-opacity:1;fill-rule:nonzero;stroke:none"
         id="path72" />
    </g>
  </g>
</svg>
